<svg width="123" height="27" viewBox="0 0 123 27" fill="none" xmlns="http://www.w3.org/2000/svg">
<path fill-rule="evenodd" clip-rule="evenodd" d="M24.2153 0.182471C29.3821 0.182471 33.2998 3.9335 33.4356 8.94962L33.4393 9.21954V12.9508C33.4393 14.5166 32.5724 15.4408 31.0536 15.5096L30.8683 15.5137H20.5868C19.9496 15.5137 19.5788 15.8412 19.5322 16.4369L19.5272 16.5687V17.8881C19.5272 20.2324 21.1712 22.7285 24.2153 22.7285C26.9264 22.7285 28.5823 20.9155 29.59 19.5572C29.7847 19.2773 30.0596 19.1008 30.3858 19.0433C30.745 18.9819 31.1228 19.0699 31.4532 19.3002C31.4532 19.3002 32.6625 20.1791 32.6639 20.1791C33.3352 20.6814 33.3295 21.5177 32.977 22.0796C31.8606 23.8888 29.2384 26.9237 24.2153 26.9237C19.0492 26.9237 15.1315 23.1723 14.9957 18.1579L14.992 17.8881V9.21954C14.992 4.06867 18.9569 0.182471 24.2153 0.182471ZM69.0084 0.182434C74.7192 0.182434 76.8113 4.23399 77.1722 5.04346C77.4938 5.76678 77.3947 6.3966 76.9035 6.7921L76.7922 6.87322L75.4748 7.80553C75.1268 8.05886 74.7714 8.15852 74.4466 8.10102C74.1636 8.05056 73.9134 7.88872 73.6992 7.61501L73.6096 7.49086L73.4558 7.24172C72.8943 6.31325 71.723 4.37964 69.0084 4.37964C66.0448 4.37964 64.4103 6.74025 64.3241 9.02899L64.3205 9.2195V17.8881C64.3205 20.2323 65.9625 22.7285 69.0084 22.7285C71.6211 22.7285 72.7093 21.0767 73.3614 20.0905C73.3614 20.0905 73.6155 19.7184 73.6115 19.722C74.2384 18.8211 74.9101 18.9216 75.3941 19.1954L75.473 19.2425L76.7361 20.1215C77.482 20.6355 77.6646 21.2568 77.2802 21.9591C76.3519 23.8124 74.0407 26.9237 69.0084 26.9237C63.8416 26.9237 59.9239 23.1723 59.7881 18.1579L59.7844 17.8881V9.2195C59.7844 4.06863 63.7493 0.182434 69.0084 0.182434ZM90.5787 0.182471C95.8385 0.182471 99.8033 4.06867 99.8033 9.21954V17.8881C99.8033 23.0371 95.8385 26.9237 90.5787 26.9237C85.3198 26.9237 81.3551 23.0371 81.3551 17.8881V9.21954C81.3551 4.06867 85.3198 0.182471 90.5787 0.182471ZM107.468 0.730758C108.268 0.730758 108.739 1.26705 109.113 1.8799L109.192 2.01222L117.715 16.9868C117.856 17.221 118.015 17.3051 118.099 17.2823C118.151 17.2668 118.186 17.2098 118.198 17.1286L118.203 17.0635V2.08906C118.203 1.28753 118.654 0.79156 119.418 0.735985L119.565 0.730758H121.104C121.906 0.730758 122.403 1.17958 122.459 1.94239L122.464 2.08906V25.0171C122.464 25.8188 122.014 26.3143 121.251 26.3698L121.104 26.3751H119.015C118.157 26.3751 117.68 25.7616 117.287 25.0916C117.287 25.0916 108.765 9.95034 108.761 9.94669C108.648 9.71635 108.5 9.63951 108.402 9.6605C108.341 9.67481 108.299 9.73129 108.285 9.81228L108.279 9.87733V25.0171C108.279 25.8188 107.827 26.3143 107.064 26.3698L106.918 26.3751H105.377C104.575 26.3751 104.079 25.9267 104.023 25.1638L104.018 25.0171V2.08906C104.018 1.28753 104.467 0.79156 105.23 0.735985L105.377 0.730758H107.468ZM40.2328 0.730758C41.1039 0.730758 41.7275 1.4262 42.0566 1.91173L42.1226 2.01222L45.808 8.37721C46.0398 8.77985 46.1625 8.90305 46.3369 8.90305C46.5109 8.90305 46.6338 8.77985 46.8665 8.37721L46.8946 8.32871C47.2346 7.74112 50.5499 2.01204 50.5528 2.00857C50.8371 1.56106 51.4214 0.835786 52.257 0.741071L52.44 0.730758H54.3637C54.7943 0.730758 55.1538 0.926418 55.349 1.26408C55.5366 1.59164 55.548 1.99765 55.3877 2.36034L55.3196 2.49407L49.272 12.6974C48.9424 13.2568 48.915 13.6693 49.1889 14.2054L49.2711 14.3549L55.3196 24.5564C55.6041 25.0401 55.6485 25.4966 55.4482 25.8478C55.2765 26.1458 54.9454 26.3306 54.5253 26.368L54.3637 26.3751H52.6041C51.4769 26.3751 51.0152 25.923 50.7146 25.4091L50.66 25.3121L46.8656 18.7286C46.6338 18.3258 46.5109 18.2031 46.3369 18.2031C46.1819 18.2031 46.0677 18.3 45.8814 18.6045L45.808 18.7286L42.0149 25.3084C41.7299 25.832 41.3192 26.3149 40.2723 26.3698L40.0685 26.3751H38.3641C37.8674 26.3751 37.4731 26.183 37.2814 25.8492C37.0993 25.5318 37.1187 25.1304 37.3302 24.7006L37.4078 24.5564L43.4018 14.3549C43.7593 13.7431 43.7593 13.3076 43.4018 12.6974C43.4018 12.6974 37.354 2.49407 37.354 2.49225C37.1266 2.1064 37.1155 1.64007 37.3231 1.27959C37.502 0.969067 37.8218 0.77694 38.2138 0.738078L38.3641 0.730758H40.2328ZM90.5787 4.3795C87.5331 4.3795 85.891 6.87325 85.891 9.21954V17.8881C85.891 20.2324 87.5331 22.7285 90.5787 22.7285C93.6248 22.7285 95.2666 20.2324 95.2666 17.8881V9.21954C95.2666 6.87325 93.6248 4.3795 90.5787 4.3795ZM24.2153 4.3795C21.2534 4.3795 19.6171 6.74028 19.5308 9.02903L19.5272 9.21954V10.5375C19.5272 11.1712 19.8555 11.541 20.4544 11.5875L20.5868 11.5925H27.8435C28.481 11.5925 28.8516 11.2649 28.8982 10.6692L28.9032 10.5375V9.21954C28.9032 6.87325 27.2612 4.3795 24.2153 4.3795Z" fill="#F7A600"/>
<path fill-rule="evenodd" clip-rule="evenodd" d="M10.9686 13.5417C10.9686 13.3571 10.9185 13.1887 10.8394 13.035L4.43472 2.0123C4.12736 1.52917 3.47734 0.730835 2.54429 0.730835H1.2071C0.746799 0.730835 0.368092 0.930146 0.165748 1.27949C-0.0417175 1.63996 -0.0294598 2.10648 0.196667 2.49214C0.196667 2.49415 6.24629 12.6975 6.24629 12.6975C6.60396 13.3075 6.60396 13.743 6.24538 14.355L0.251552 24.5565C-0.032387 25.0402 -0.0773928 25.4967 0.123853 25.8493C0.315951 26.1831 0.711124 26.3749 1.2071 26.3749H2.37945C3.57723 26.3749 4.02308 25.8646 4.32714 25.3083L10.819 14.0903C10.911 13.9251 10.9686 13.7412 10.9686 13.5417Z" fill="#5FC4E1"/>
</svg>
